<svg xmlns="http://www.w3.org/2000/svg" aria-hidden="true" style="position:absolute;width:0;height:0;overflow:hidden">
  <defs>
    <symbol id="icon-chevron-down" viewBox="0 0 32 32">
      <path d="M5.035 9.835a.787.787 0 0 1 .567-.235.812.812 0 0 1 .567.235l9.034 9.035 9.034-9.035a.786.786 0 0 1 .567-.235.812.812 0 0 1 .567.235.813.813 0 0 1 .235.567.808.808 0 0 1-.235.567l-9.6 9.6a.787.787 0 0 1-.567.235.812.812 0 0 1-.567-.235l-9.6-9.6a.803.803 0 0 1 0-1.134z"/>
    </symbol>
    <symbol id="icon-chevron-up" viewBox="0 0 32 32">
      <path d="M14.293 8.294a.991.991 0 0 1 .708-.293 1.002 1.002 0 0 1 .708.293l12 12a1 1 0 0 1-.708 1.709 1 1 0 0 1-.708-.293L15.001 10.416 3.709 21.71A1 1 0 0 1 2 21.002a1 1 0 0 1 .293-.708l12-12z"/>
    </symbol>
    <symbol id="icon-group" viewBox="0 0 26 32">
      <path d="M20.332 17.88c-1.048 2.124-2.468 4.24-3.92 6.14A64.055 64.055 0 0 1 12 29.16a64.055 64.055 0 0 1-4.412-5.14c-1.452-1.9-2.872-4.016-3.92-6.14C2.608 15.734 2 13.724 2 12a10.001 10.001 0 0 1 20 0c0 1.724-.61 3.734-1.668 5.88zM12 32s12-11.372 12-20A12.003 12.003 0 0 0 12 0 11.998 11.998 0 0 0 0 12c0 8.628 12 20 12 20z"/>
      <path d="M12 16a4.003 4.003 0 0 1-4-4 4.003 4.003 0 0 1 4-4 4.003 4.003 0 0 1 4 4 4.003 4.003 0 0 1-4 4zm0 2a5.996 5.996 0 0 0 6-6 5.996 5.996 0 0 0-6-6 5.996 5.996 0 0 0-6 6 5.996 5.996 0 0 0 6 6z"/>
    </symbol>
    <symbol id="icon-heart-1" viewBox="0 0 32 32">
      <path d="m16 5.496-1.434-1.474C11.2.562 5.028 1.756 2.8 6.106c-1.046 2.046-1.282 5 .628 8.77C5.268 18.506 9.096 22.854 16 27.59c6.904-4.736 10.73-9.084 12.572-12.714 1.91-3.772 1.676-6.724.628-8.77C26.972 1.756 20.8.56 17.434 4.02L16 5.496zM16 30C-14.666 9.736 6.558-6.08 15.648 2.286c.12.111.237.225.352.342a5.94 5.94 0 0 1 .352-.34C25.44-6.084 46.666 9.734 16 30z"/>
    </symbol>
    <symbol id="icon-heart" viewBox="0 0 32 32">
      <path d="M16 2.628C24.876-6.496 47.068 9.47 16 30-15.068 9.472 7.124-6.496 16 2.628z"/>
    </symbol>
  </defs>
</svg>
